name D:\school\WTK\thesis\model\3dpredictsim\Results\debug_tmt\Pog_s1_tmt_bCst_d02_k800_ig24_v3.mot
datacolumns 128
datarows 4
range 0.54039158 0.57281507
endheader
time	pelvis_tilt	pelvis_list	pelvis_rotation	pelvis_tx	pelvis_ty	pelvis_tz	hip_flexion_l	hip_adduction_l	hip_rotation_l	hip_flexion_r	hip_adduction_r	hip_rotation_r	knee_angle_l	knee_angle_r	ankle_angle_l	ankle_angle_r	subtalar_angle_l	subtalar_angle_r	tmt_angle_l	tmt_angle_r	mtp_angle_l	mtp_angle_r	lumbar_extension	lumbar_bending	lumbar_rotation	arm_flex_l	arm_add_l	arm_rot_l	arm_flex_r	arm_add_r	arm_rot_r	elbow_flex_l	elbow_flex_r	pro_sup_l	pro_sup_r	glut_med1_l/activation	glut_med2_l/activation	glut_med3_l/activation	glut_min1_l/activation	glut_min2_l/activation	glut_min3_l/activation	semimem_l/activation	semiten_l/activation	bifemlh_l/activation	bifemsh_l/activation	sar_l/activation	add_long_l/activation	add_brev_l/activation	add_mag1_l/activation	add_mag2_l/activation	add_mag3_l/activation	tfl_l/activation	pect_l/activation	grac_l/activation	glut_max1_l/activation	glut_max2_l/activation	glut_max3_l/activation	iliacus_l/activation	psoas_l/activation	quad_fem_l/activation	gem_l/activation	peri_l/activation	rect_fem_l/activation	vas_med_l/activation	vas_int_l/activation	vas_lat_l/activation	med_gas_l/activation	lat_gas_l/activation	soleus_l/activation	tib_post_l/activation	flex_dig_l/activation	flex_hal_l/activation	tib_ant_l/activation	per_brev_l/activation	per_long_l/activation	per_tert_l/activation	ext_dig_l/activation	ext_hal_l/activation	ercspn_l/activation	intobl_l/activation	extobl_l/activation	glut_med1_r/activation	glut_med2_r/activation	glut_med3_r/activation	glut_min1_r/activation	glut_min2_r/activation	glut_min3_r/activation	semimem_r/activation	semiten_r/activation	bifemlh_r/activation	bifemsh_r/activation	sar_r/activation	add_long_r/activation	add_brev_r/activation	add_mag1_r/activation	add_mag2_r/activation	add_mag3_r/activation	tfl_r/activation	pect_r/activation	grac_r/activation	glut_max1_r/activation	glut_max2_r/activation	glut_max3_r/activation	iliacus_r/activation	psoas_r/activation	quad_fem_r/activation	gem_r/activation	peri_r/activation	rect_fem_r/activation	vas_med_r/activation	vas_int_r/activation	vas_lat_r/activation	med_gas_r/activation	lat_gas_r/activation	soleus_r/activation	tib_post_r/activation	flex_dig_r/activation	flex_hal_r/activation	tib_ant_r/activation	per_brev_r/activation	per_long_r/activation	per_tert_r/activation	ext_dig_r/activation	ext_hal_r/activation	ercspn_r/activation	intobl_r/activation	extobl_r/activation	
          0.54039158	         -2.92999949	          2.24025373	         -5.35868601	          0.67548948	          0.85809330	          0.00241863	         31.70222469	          3.12556522	         -1.76519517	        -17.90777047	         -1.61903364	          7.23211705	        -14.34700405	         -6.52526014	          7.26352248	          0.92465227	         -3.41485748	          9.50426989	          0.04366242	          2.32246124	         -0.12430906	         20.67297084	         -1.93949278	         -0.56868617	          1.96887243	         -8.00465263	        -13.51464263	          9.89565048	          8.61727379	        -13.45217636	         18.51564000	         12.50396642	         33.41100433	         86.51662706	         86.51662706	          0.09360224	          0.05000007	          0.05900642	          0.05000005	          0.05000007	          0.05000029	          0.05900658	          0.05900665	          0.22062494	          0.05000027	          0.05000136	          0.10909165	          0.17299706	          0.19941065	          0.15409152	          0.10229607	          0.05900656	          0.05002744	          0.06550291	          0.05900997	          0.06963524	          0.10501418	          0.05000006	          0.05000009	          0.23670661	          0.05235230	          0.05000024	          0.05000011	          0.08386902	          0.08842213	          0.07479034	          0.05891806	          0.05000139	          0.05900650	          0.05000004	          0.05000081	          0.05000305	          0.48238837	          0.37821664	          0.21861873	          0.26341854	          0.53241451	          0.25737206	          0.07299500	          0.11339060	          0.11481261	          0.33240637	          0.11430298	          0.08217828	          0.32984251	          0.21956020	          0.11445122	          0.05000040	          0.05000007	          0.05000005	          0.07663537	          0.11445182	          0.05000007	          0.05000006	          0.05000007	          0.05000019	          0.05000014	          0.32769201	          0.05000031	          0.05000019	          0.05000433	          0.05000150	          0.05000043	          0.40202721	          0.63537001	          0.05000010	          0.05000034	          0.05276066	          0.21797330	          0.05000211	          0.05000066	          0.05000076	          0.33097922	          0.44574865	          0.32259677	          0.27112251	          0.27864822	          0.37808208	          0.05000002	          0.05902160	          0.15205678	          0.05000016	          0.05000004	          0.05000014	          0.05000000	          0.05000000	          0.05000001	
          0.55119941	         -2.92629860	          2.33034601	         -5.65855324	          0.69159156	          0.85705600	          0.00222358	         31.11312376	          3.48423079	         -1.56073415	        -17.80011833	         -1.91932588	          7.00423437	        -14.25184778	         -8.40484013	          6.67914095	          0.25372502	         -3.89220525	         10.47774631	          0.05129299	          2.05608908	         -0.10394319	         21.82024261	         -1.74978629	         -0.78150961	          2.04400475	         -9.04802891	        -13.50472735	          9.80087881	          8.48588439	        -13.46042705	         18.68462564	         12.36362933	         34.55798960	         86.51662706	         86.51662706	          0.07931522	          0.05628346	          0.05000006	          0.05900672	          0.05900645	          0.05000032	          0.05000007	          0.05000019	          0.18695049	          0.05000019	          0.05000050	          0.09699895	          0.14659174	          0.24349915	          0.17565602	          0.09074992	          0.05000016	          0.05000191	          0.05550503	          0.05000347	          0.05900648	          0.11525924	          0.05122894	          0.06302709	          0.53351689	          0.13580827	          0.08328176	          0.06963551	          0.18002110	          0.18581789	          0.15926129	          0.05000000	          0.05000000	          0.05000000	          0.05000009	          0.05900665	          0.05000159	          0.53599214	          0.33432385	          0.22819399	          0.41938710	          0.56849843	          0.24009298	          0.06185333	          0.09608310	          0.09728807	          0.28166920	          0.09685623	          0.06963493	          0.27949670	          0.18604742	          0.09698185	          0.05000445	          0.05000040	          0.05000057	          0.06493806	          0.09698243	          0.11611251	          0.06398649	          0.06293274	          0.05001847	          0.06963474	          0.27767445	          0.05164902	          0.05000199	          0.05000142	          0.05000105	          0.05000132	          0.34066338	          0.56454639	          0.05000027	          0.05002237	          0.05900657	          0.18470273	          0.05000099	          0.18233817	          0.14534834	          0.28045985	          0.37771134	          0.27988328	          0.24646870	          0.23611783	          0.32037403	          0.05000001	          0.05001297	          0.15488259	          0.05000006	          0.05000001	          0.05000007	          0.05000001	          0.06963541	          0.05000001	
          0.56200724	         -2.91852685	          2.41791794	         -5.93357535	          0.70800637	          0.85604256	          0.00203862	         30.39694427	          3.78823569	         -1.29230283	        -17.62190329	         -2.21309615	          6.76555373	        -14.66685079	        -10.40634446	          6.04351012	         -0.57505479	         -4.38869278	         11.40898541	         -0.03964966	          1.75048633	         -0.14774544	         22.85480901	         -1.53663228	         -0.99901212	          2.10935631	        -10.11752219	        -13.49786815	          9.72335543	          8.26274879	        -13.46803952	         18.78057689	         12.29012388	         35.67517918	         86.51662706	         86.51662706	          0.26470818	          0.05000003	          0.27451302	          0.05000021	          0.05000008	          0.21906461	          0.07546428	          0.05000033	          0.16754492	          0.05000008	          0.05000040	          0.08219586	          0.22436652	          0.20633260	          0.14884552	          0.12740456	          0.05000023	          0.05901074	          0.12437109	          0.05000006	          0.05000007	          0.09767524	          0.05900648	          0.05534927	          0.45208298	          0.11507908	          0.15519871	          0.05900662	          0.15254342	          0.15745540	          0.13495230	          0.05922893	          0.05900958	          0.05900658	          0.05900652	          0.05000021	          0.05000039	          0.45418040	          0.34930504	          0.19336341	          0.35537358	          0.58013705	          0.20344615	          0.05241229	          0.10606010	          0.08243840	          0.36095006	          0.08207249	          0.05900616	          0.23683551	          0.15764990	          0.08217894	          0.05000111	          0.05000047	          0.05000048	          0.05502620	          0.08217954	          0.14082618	          0.11468211	          0.05900755	          0.05900687	          0.05900666	          0.23529151	          0.08790264	          0.05586136	          0.05000849	          0.05001333	          0.05900584	          0.28866593	          0.53914533	          0.05900635	          0.05000076	          0.05000009	          0.15651044	          0.10581211	          0.15450706	          0.12316327	          0.23765155	          0.32005896	          0.23716299	          0.20884872	          0.20007785	          0.27147348	          0.05000001	          0.05000016	          0.17564823	          0.05000005	          0.05000001	          0.05000006	          0.05426234	          0.05900654	          0.05240346	
          0.57281507	         -2.90839009	          2.50472809	         -6.17579802	          0.72457412	          0.85505809	          0.00184391	         29.55760043	          4.05400584	         -1.01409507	        -17.35206920	         -2.49793262	          6.52261565	        -15.10657811	        -12.54893767	          5.56127813	         -1.55883261	         -4.88069763	         12.28072449	         -0.02186942	          1.43848454	         -0.15851568	         23.70413237	         -1.31662377	         -1.22226486	          2.16572602	        -11.17120802	        -13.49482099	          9.68086489	          7.96865859	        -13.47897065	         18.81297552	         12.25719553	         36.75599259	         86.51662706	         86.51662706	          0.32029464	          0.28642028	          0.35838839	          0.17451634	          0.21439978	          0.18562782	          0.06394574	          0.08681828	          0.14197153	          0.08217881	          0.05000630	          0.06964983	          0.19012010	          0.17483886	          0.12612643	          0.14275080	          0.05000023	          0.05000373	          0.10538773	          0.21763836	          0.16531024	          0.12016305	          0.05000004	          0.05000004	          0.38307883	          0.09751397	          0.13150992	          0.05000010	          0.12925988	          0.14855745	          0.11435387	          0.05018847	          0.05000260	          0.05000005	          0.05000001	          0.05900655	          0.05674357	          0.58113294	          0.42982787	          0.22113200	          0.62533080	          0.63257046	          0.32619745	          0.07553340	          0.09110133	          0.06985533	          0.30921099	          0.06954528	          0.05000005	          0.35476751	          0.13358688	          0.06963550	          0.05000149	          0.05000008	          0.05000007	          0.05000011	          0.06963659	          0.12693551	          0.09717754	          0.05000095	          0.05000057	          0.05000028	          0.25258531	          0.07448659	          0.05000026	          0.05000071	          0.05000041	          0.05000026	          0.24460521	          0.50552614	          0.05000005	          0.05000035	          0.05000022	          0.13506731	          0.08966171	          0.13092481	          0.13506674	          0.20137735	          0.27120641	          0.20096336	          0.17697089	          0.16953882	          0.23003688	          0.05000003	          0.08520342	          0.17813443	          0.05000013	          0.08818770	          0.05000015	          0.07326868	          0.05000001	          0.05000001	
